<svg xmlns="http://www.w3.org/2000/svg" xmlns:xlink="http://www.w3.org/1999/xlink" width="current" height="current" viewBox="0 0 512 512"><defs><style>.a{fill:#48cae4;}.b{fill:#00b4d8;}.c{fill:#caf0f8;}.d{clip-path:url(#g);}.e{fill:#ade8f4;}.f{fill:url(#a);}.g{fill:url(#b);}.h{fill:#90e0ef;}.i{clip-path:url(#c);}.j{clip-path:url(#d);}.k{clip-path:url(#e);}</style><linearGradient id="a" x1="0.5" x2="0.5" y2="1" gradientUnits="objectBoundingBox"><stop offset="0" stop-color="#3a36db"/><stop offset="1" stop-color="#7c43f1"/></linearGradient><linearGradient id="b" x1="0.5" x2="0.5" y2="1" gradientUnits="objectBoundingBox"><stop offset="0" stop-color="#36dae9"/><stop offset="1" stop-color="#0090ff"/></linearGradient><clipPath id="c"><rect class="a" width="72" height="272" rx="36" transform="translate(-2005.175 -1366.806) rotate(158)"/></clipPath><clipPath id="d"><rect class="b" width="72" height="272" rx="36" transform="translate(-2005.175 -1366.806) rotate(158)"/></clipPath><clipPath id="e"><rect class="c" width="72" height="272" rx="36" transform="translate(-2005.175 -1366.806) rotate(158)"/></clipPath><clipPath id="g"><rect width="512" height="512"/></clipPath></defs><g id="f" class="d"><g transform="translate(52 94.286)"><rect class="e" width="72" height="272" rx="36" transform="translate(73.932 293.88) rotate(-158)"/><rect class="f" width="87.001" height="229.585" rx="43.5" transform="translate(0 145.253) rotate(-45)"/><rect class="g" width="87.001" height="348.003" rx="43.5" transform="translate(346.824) rotate(45)"/><rect class="a" width="72" height="272" rx="36" transform="translate(223.932 293.88) rotate(-158)"/><path class="h" d="M36,0A36,36,0,0,1,72,36V236a36,36,0,0,1-72,0V36A36,36,0,0,1,36,0Z" transform="translate(250.825 266.908) rotate(158)"/><g class="i" transform="translate(2256 1633.714)"><rect class="a" width="72" height="272" rx="36" transform="translate(-2182.068 -1339.834) rotate(-158)"/></g><rect class="h" width="72" height="272" rx="36" transform="translate(400.825 266.908) rotate(158)"/><g class="j" transform="translate(2406 1633.714)"><rect class="b" width="72" height="272" rx="36" transform="translate(-2182.068 -1339.834) rotate(-158)"/></g><g class="k" transform="translate(-1923 -1325.12) rotate(180)"><rect class="c" width="72" height="272" rx="36" transform="translate(-2182.068 -1339.834) rotate(-158)"/></g></g></g></svg>