<?xml version="1.0" encoding="UTF-8"?><svg xmlns="http://www.w3.org/2000/svg" viewBox="0 0 300 300" x="0px" y="0px" width="current" height="current" version="1.1" xmlns:xlink="http://www.w3.org/1999/xlink"><title>Investment Colored Icons</title><g id="Layer_2" data-name="Layer 2"><path d="M68.28,64.36S69,52.23,74.53,51.72s9.58,4.6,9.58,4.6.89,7.53.89,8,3.57.77,4.6.77a54.62,54.62,0,0,0,5.49-.77c2.42-.38,3.19.31,3.7-1.38s-2.81-6.31.64-8.53a24.52,24.52,0,0,1,5.1-2.76c.77-.35.83-1.24,3.41,1.57s1.44,3.06,2.59,6.63-1.91,4.22,2.3,4.47,12.28.26,15.59.26,57.94.51,57.94.51-.13-14.3,5-14.68a8.14,8.14,0,0,1,7.66,4c0,.21-.51,7.1-.51,7.1l3.32,3.58h11s.28-12.13,4.35-13,8.29.89,8.92,1.53,1.66,5,1.66,6.25.9,6.13.9,6.13,10.08-2.17,14.93,4.6S247,141.3,247,141.3l2.21,97.42s-2.17,9.85-16.08,10.75-170.3,0-170.3,0-13-3.45-13.53-16.6,0-151.12,0-151.12S53,66.85,60.17,65.38,68.28,64.36,68.28,64.36Z" style="fill:#2a94f4;"/><polygon points="65.08 99 109.85 99 109.85 160.02 63.64 160.02 65.08 99" style="fill:#cce9ff;"/><rect x="125.6" y="98.23" width="47.32" height="60.94" style="fill:#cce9ff;"/><polygon points="186.36 99 186.36 160.02 232.66 160.02 232.66 100.11 186.36 99" style="fill:#cce9ff;"/><rect x="65" y="174.15" width="45.53" height="59.91" style="fill:#cce9ff;"/><rect x="125.6" y="175" width="47.32" height="59.06" style="fill:#cce9ff;"/><path d="M71.55,53.3s-1.53,7.57-1,12.59,3.24,9.71,7.58,7.66S84.8,65,84.94,63.67a67.36,67.36,0,0,0-.2-7.31C84.66,55.85,78.36,48.45,71.55,53.3Z" style="fill:#cce9ff;"/><path d="M102.87,51.66a8.54,8.54,0,0,0-5.61,7.43c-.43,5.78,1.27,14.68,3.23,15s4.94.45,6.81-1.42,4.51-5.79,4.34-7.15-.51-4.68-.51-4.68S113.17,50.7,102.87,51.66Z" style="fill:#cce9ff;"/><path d="M192.49,50.91s-6,2.56-6.13,7.32,1,16.62,4.6,16.7,8.76-5.81,8.85-6.83,8.42-2,8.42-2l3.15.34s3.32,2,3.58,2.81-.23,2.13,2.18,3a20,20,0,0,0,4.2,1c1.19.26,2.21,1.11,3.23-.17S226,70,226.45,67.51s-.09-8.6-.09-8.6-2.89-6.12-3.23-6.63.93-2.22-2.22-1.37-4.59.94-5.7,2.64-1.7,2-2,4.17-.17,3.15-.6,4.34-.6,1.54-2.34,1.54h-3.83s.38,2-2.68,0-4.77-1.71-4.51-2.73.59-4.5-.3-6.42S195.89,50.91,192.49,50.91Z" style="fill:#cce9ff;"/></g><g id="Layer_1" data-name="Layer 1"><path d="M125,163.65h47.77a3.41,3.41,0,0,0,3.41-3.41V98.81a3.41,3.41,0,0,0-3.41-3.41H125a3.42,3.42,0,0,0-3.42,3.41v61.43a3.42,3.42,0,0,0,3.42,3.41Zm3.41-61.42h41v54.59h-41Zm0,0" style="fill:#0b4870;"/><path d="M186.43,163.65H234.2a3.42,3.42,0,0,0,3.42-3.41V98.81a3.42,3.42,0,0,0-3.42-3.41H186.43A3.41,3.41,0,0,0,183,98.81v61.43a3.41,3.41,0,0,0,3.41,3.41Zm3.41-61.42h40.95v54.59H189.84Zm0,0" style="fill:#0b4870;"/><path d="M63.58,238.72h47.78a3.41,3.41,0,0,0,3.41-3.41V173.89a3.42,3.42,0,0,0-3.41-3.42H63.58a3.42,3.42,0,0,0-3.41,3.42v61.42a3.41,3.41,0,0,0,3.41,3.41ZM67,177.3h40.94v54.6H67Zm0,0" style="fill:#0b4870;"/><path d="M125,238.72h47.77a3.41,3.41,0,0,0,3.41-3.41V173.89a3.42,3.42,0,0,0-3.41-3.42H125a3.42,3.42,0,0,0-3.42,3.42v61.42a3.42,3.42,0,0,0,3.42,3.41Zm3.41-61.42h41v54.6h-41Zm0,0" style="fill:#0b4870;"/><path d="M234.2,61.28h-3.41V57.86a10.24,10.24,0,0,0-20.47,0v3.42h-6.83V57.86a10.24,10.24,0,0,0-20.47,0v3.42H114.77V57.86a10.24,10.24,0,0,0-20.48,0v3.42H87.47V57.86a10.24,10.24,0,0,0-20.47,0v3.42H63.58A17.08,17.08,0,0,0,46.52,78.34v157a17.08,17.08,0,0,0,17.06,17.06H234.2a17.09,17.09,0,0,0,17.07-17.06v-157A17.09,17.09,0,0,0,234.2,61.28Zm-17.06-3.42a3.42,3.42,0,0,1,6.83,0V68.1a3.42,3.42,0,0,1-6.83,0Zm-27.3,0a3.42,3.42,0,0,1,6.83,0V68.1a3.42,3.42,0,0,1-6.83,0Zm-88.72,0a3.41,3.41,0,1,1,6.82,0V68.1a3.41,3.41,0,0,1-6.82,0Zm-27.3,0a3.41,3.41,0,1,1,6.82,0V68.1a3.41,3.41,0,1,1-6.82,0ZM244.44,235.31a10.24,10.24,0,0,1-10.24,10.24H201.49l42.95-43Zm-47.77,5.41V208a10.24,10.24,0,0,1,10.23-10.24h32.72ZM244.44,191H206.9A17.08,17.08,0,0,0,189.84,208v37.54H63.58a10.24,10.24,0,0,1-10.23-10.24V88.58H244.44Zm0-109.2H53.35V78.34A10.24,10.24,0,0,1,63.58,68.1H67a10.24,10.24,0,1,0,20.47,0h6.82a10.24,10.24,0,1,0,20.48,0H183a10.24,10.24,0,1,0,20.47,0h6.83a10.24,10.24,0,1,0,20.47,0h3.41a10.24,10.24,0,0,1,10.24,10.24Zm0,0" style="fill:#0b4870;"/><path d="M210.32,119.29a3.41,3.41,0,0,1,3.41,3.41h6.82a10.23,10.23,0,0,0-6.82-9.61v-4H206.9v4a10.22,10.22,0,0,0,3.42,19.85,3.41,3.41,0,1,1-3.42,3.41h-6.82A10.25,10.25,0,0,0,206.9,146v4h6.83v-4a10.22,10.22,0,0,0-3.41-19.85,3.41,3.41,0,1,1,0-6.82Zm0,0" style="fill:#0b4870;"/><path d="M148.89,194.36a3.42,3.42,0,0,1,3.42,3.41h6.82a10.26,10.26,0,0,0-6.82-9.61v-4h-6.83v4A10.22,10.22,0,0,0,148.89,208a3.42,3.42,0,1,1-3.41,3.41h-6.82a10.21,10.21,0,0,0,6.82,9.61v4h6.83v-4a10.21,10.21,0,0,0-3.42-19.84,3.42,3.42,0,0,1,0-6.83Zm0,0" style="fill:#0b4870;"/><path d="M87.47,194.36a3.41,3.41,0,0,1,3.41,3.41h6.83a10.25,10.25,0,0,0-6.83-9.61v-4H84.06v4A10.21,10.21,0,0,0,87.47,208a3.42,3.42,0,1,1-3.41,3.41H77.23A10.23,10.23,0,0,0,84.06,221v4h6.82v-4a10.21,10.21,0,0,0-3.41-19.84,3.42,3.42,0,0,1,0-6.83Zm0,0" style="fill:#0b4870;"/><path d="M148.89,119.29a3.42,3.42,0,0,1,3.42,3.41h6.82a10.25,10.25,0,0,0-6.82-9.61v-4h-6.83v4a10.22,10.22,0,0,0,3.41,19.85,3.41,3.41,0,1,1-3.41,3.41h-6.82a10.22,10.22,0,0,0,6.82,9.61v4h6.83v-4a10.22,10.22,0,0,0-3.42-19.85,3.41,3.41,0,0,1,0-6.82Zm0,0" style="fill:#0b4870;"/><path d="M63.58,163.65h47.78a3.41,3.41,0,0,0,3.41-3.41V98.81a3.41,3.41,0,0,0-3.41-3.41H63.58a3.41,3.41,0,0,0-3.41,3.41v61.43a3.41,3.41,0,0,0,3.41,3.41ZM67,102.23h40.94v54.59H67Zm0,0" style="fill:#0b4870;"/><path d="M87.47,119.29a3.41,3.41,0,0,1,3.41,3.41h6.83a10.24,10.24,0,0,0-6.83-9.61v-4H84.06v4a10.21,10.21,0,0,0,3.41,19.85,3.41,3.41,0,1,1-3.41,3.41H77.23A10.24,10.24,0,0,0,84.06,146v4h6.82v-4a10.21,10.21,0,0,0-3.41-19.85,3.41,3.41,0,0,1,0-6.82Zm0,0" style="fill:#0b4870;"/></g></svg>